<svg width="93" height="19" viewBox="0 0 93 19" fill="none" xmlns="http://www.w3.org/2000/svg">
<g style="mix-blend-mode:darken">
<path d="M1.04102 15C0.416016 15 0.292318 14.7201 0.669922 14.1602L2.75977 11.0352C2.94857 10.7552 3.25781 10.3743 3.6875 9.89258C4.1237 9.4043 4.55013 9.03646 4.9668 8.78906V8.76953C3.6582 8.70443 2.64583 8.31706 1.92969 7.60742C1.22005 6.89128 0.865234 6.06445 0.865234 5.12695C0.865234 3.7793 1.31445 2.75391 2.21289 2.05078C3.11133 1.34766 4.61198 0.996094 6.71484 0.996094H11.2461C11.7018 0.996094 11.9297 1.24023 11.9297 1.72852V14.2676C11.9297 14.7559 11.7018 15 11.2461 15H9.76172C9.30599 15 9.07812 14.7559 9.07812 14.2676V9.4043H8.48242C7.85091 9.4043 7.3431 9.56706 6.95898 9.89258C6.57487 10.2181 6.19076 10.6771 5.80664 11.2695L3.76562 14.4238C3.51823 14.8079 3.22526 15 2.88672 15H1.04102ZM3.75586 5.10742C3.75586 5.96029 4.10417 6.49414 4.80078 6.70898C5.4974 6.91732 6.30469 7.02148 7.22266 7.02148H9.07812V3.37891H6.85156C5.86849 3.37891 5.10677 3.50911 4.56641 3.76953C4.02604 4.02995 3.75586 4.47591 3.75586 5.10742Z" fill="#ED0C32"/>
<path d="M20.582 9.16016C20.582 8.41797 20.6504 7.53581 20.7871 6.51367C20.9303 5.49154 21.1224 4.6582 21.3633 4.01367C21.6107 3.36914 21.9199 2.85482 22.291 2.4707C22.6621 2.08659 23.1081 1.76758 23.6289 1.51367C24.1497 1.25326 24.6315 1.09375 25.0742 1.03516C25.7253 0.94401 26.3145 0.891927 26.8418 0.878906C27.3757 0.859375 27.7598 0.823568 27.9941 0.771484C28.248 0.712891 28.4271 0.605469 28.5312 0.449219C28.6354 0.292969 28.8372 0.214844 29.1367 0.214844H29.8203C30.0742 0.214844 30.2012 0.361328 30.2012 0.654297C30.2012 1.14258 30.0384 1.57552 29.7129 1.95312C29.3939 2.32422 28.9479 2.55859 28.375 2.65625C28.1081 2.70182 27.7435 2.74089 27.2812 2.77344C26.8255 2.79948 26.321 2.8418 25.7676 2.90039C25.2142 2.95898 24.651 3.13151 24.0781 3.41797C22.8997 4.01042 22.2845 5.12044 22.2324 6.74805L22.3105 6.78711C22.4408 6.30534 22.8249 5.8138 23.4629 5.3125C24.1009 4.80469 24.9277 4.55078 25.9434 4.55078C27.4473 4.55078 28.6322 5.02279 29.498 5.9668C30.3639 6.91081 30.7969 8.21289 30.7969 9.87305C30.7969 11.5332 30.3672 12.8353 29.5078 13.7793C28.6549 14.7233 27.3822 15.1953 25.6895 15.1953C23.9121 15.1953 22.6165 14.6647 21.8027 13.6035C20.9889 12.5423 20.582 11.0612 20.582 9.16016ZM23.4727 9.87305C23.4727 11.11 23.6615 11.9889 24.0391 12.5098C24.4232 13.0241 24.9733 13.2812 25.6895 13.2812C26.4056 13.2812 26.9525 13.0241 27.3301 12.5098C27.7142 11.9889 27.9062 11.11 27.9062 9.87305C27.9062 8.63607 27.7142 7.76042 27.3301 7.24609C26.9525 6.72526 26.4056 6.46484 25.6895 6.46484C24.9733 6.46484 24.4232 6.72526 24.0391 7.24609C23.6615 7.76042 23.4727 8.63607 23.4727 9.87305ZM33.4922 18.9062C33.1016 18.9062 32.9062 18.7109 32.9062 18.3203V5.33203C32.9062 4.94141 33.1016 4.74609 33.4922 4.74609H35.0352C35.3607 4.74609 35.5365 4.94141 35.5625 5.33203L35.6016 5.89844H35.6406C35.9792 5.33854 36.3568 4.97396 36.7734 4.80469C37.1901 4.63542 37.6914 4.55078 38.2773 4.55078C39.8073 4.55078 40.8815 5.08138 41.5 6.14258C42.125 7.19727 42.4375 8.44076 42.4375 9.87305C42.4375 11.3053 42.125 12.5521 41.5 13.6133C40.8815 14.668 39.8073 15.1953 38.2773 15.1953C37.6914 15.1953 37.1901 15.1107 36.7734 14.9414C36.3568 14.7721 35.9792 14.4076 35.6406 13.8477H35.6016C35.6276 14.1081 35.6406 14.3685 35.6406 14.6289V18.3203C35.6406 18.7109 35.4453 18.9062 35.0547 18.9062H33.4922ZM35.6406 10.3125C35.6406 11.1914 35.8132 11.9076 36.1582 12.4609C36.5098 13.0078 36.9297 13.2812 37.418 13.2812C38.2969 13.2812 38.8698 12.9753 39.1367 12.3633C39.4102 11.7448 39.5469 10.9147 39.5469 9.87305C39.5469 8.83138 39.4102 8.00456 39.1367 7.39258C38.8698 6.77409 38.2969 6.46484 37.418 6.46484C36.9297 6.46484 36.5098 6.74154 36.1582 7.29492C35.8132 7.8418 35.6406 8.55469 35.6406 9.43359V10.3125ZM44 9.87305C44 8.21289 44.4264 6.91081 45.2793 5.9668C46.1387 5.02279 47.4147 4.55078 49.1074 4.55078C50.8001 4.55078 52.0729 5.02279 52.9258 5.9668C53.7852 6.91081 54.2148 8.21289 54.2148 9.87305C54.2148 11.5332 53.7852 12.8353 52.9258 13.7793C52.0729 14.7233 50.8001 15.1953 49.1074 15.1953C47.4147 15.1953 46.1387 14.7233 45.2793 13.7793C44.4264 12.8353 44 11.5332 44 9.87305ZM46.8906 9.87305C46.8906 11.11 47.0794 11.9889 47.457 12.5098C47.8411 13.0241 48.3913 13.2812 49.1074 13.2812C49.8236 13.2812 50.3704 13.0241 50.748 12.5098C51.1322 11.9889 51.3242 11.11 51.3242 9.87305C51.3242 8.63607 51.1322 7.76042 50.748 7.24609C50.3704 6.72526 49.8236 6.46484 49.1074 6.46484C48.3913 6.46484 47.8411 6.72526 47.457 7.24609C47.0794 7.76042 46.8906 8.63607 46.8906 9.87305ZM55.7773 9.87305C55.7773 8.21289 56.194 6.91081 57.0273 5.9668C57.8607 5.02279 59.14 4.55078 60.8652 4.55078C61.8743 4.55078 62.6589 4.68424 63.2188 4.95117C63.7786 5.2181 64.2279 5.60872 64.5664 6.12305C64.7682 6.42904 64.7357 6.66992 64.4688 6.8457L63.4336 7.5293C63.1406 7.72461 62.8835 7.64974 62.6621 7.30469C62.5514 7.13542 62.3398 6.95312 62.0273 6.75781C61.7148 6.5625 61.3275 6.46484 60.8652 6.46484C60.1296 6.46484 59.5794 6.72526 59.2148 7.24609C58.8503 7.76042 58.668 8.63607 58.668 9.87305C58.668 11.11 58.8503 11.9889 59.2148 12.5098C59.5794 13.0241 60.1296 13.2812 60.8652 13.2812C61.3926 13.2812 61.819 13.1706 62.1445 12.9492C62.4701 12.7279 62.776 12.4414 63.0625 12.0898C63.3099 11.7904 63.5703 11.748 63.8438 11.9629L64.752 12.6758C65.0254 12.8906 65.0417 13.1771 64.8008 13.5352C64.5469 13.9128 64.1139 14.2839 63.502 14.6484C62.8965 15.013 62.0176 15.1953 60.8652 15.1953C59.14 15.1953 57.8607 14.7233 57.0273 13.7793C56.194 12.8353 55.7773 11.5332 55.7773 9.87305ZM66.3828 12.2656C66.3828 10.9635 67.0046 10.0195 68.248 9.43359C69.4915 8.84766 70.9108 8.53516 72.5059 8.49609V8.10547C72.5059 7.50651 72.3561 7.08333 72.0566 6.83594C71.7572 6.58854 71.3405 6.46484 70.8066 6.46484C70.429 6.46484 70.0938 6.52018 69.8008 6.63086C69.5143 6.73503 69.2637 6.85872 69.0488 7.00195C68.8405 7.13867 68.6517 7.27865 68.4824 7.42188C68.1829 7.68229 67.9355 7.69531 67.7402 7.46094L66.9297 6.46484C66.7279 6.21745 66.7767 5.96354 67.0762 5.70312C67.304 5.5013 67.5677 5.32552 67.8672 5.17578C68.1732 5.02604 68.5768 4.88607 69.0781 4.75586C69.5794 4.61914 70.2305 4.55078 71.0312 4.55078C72.3854 4.55078 73.4238 4.86328 74.1465 5.48828C74.8757 6.11328 75.2402 7.03451 75.2402 8.25195V14.4141C75.2402 14.8047 75.0449 15 74.6543 15H73.0527C72.7012 15 72.5254 14.8047 72.5254 14.4141V14.1211H72.5059C72.1217 14.4922 71.6595 14.7656 71.1191 14.9414C70.5853 15.1107 70.0938 15.1953 69.6445 15.1953C68.5768 15.1953 67.7663 14.9349 67.2129 14.4141C66.6595 13.8867 66.3828 13.1706 66.3828 12.2656ZM69.2734 12.207C69.2734 12.4349 69.319 12.6335 69.4102 12.8027C69.5013 12.9655 69.6445 13.0859 69.8398 13.1641C70.0352 13.2422 70.2533 13.2812 70.4941 13.2812C70.8262 13.2812 71.1484 13.2357 71.4609 13.1445C71.7734 13.0534 72.1217 12.8385 72.5059 12.5V10.3809C71.4121 10.5046 70.6797 10.6641 70.3086 10.8594C69.9375 11.0547 69.6706 11.2565 69.5078 11.4648C69.3516 11.6732 69.2734 11.9206 69.2734 12.207ZM78.4922 15C78.1016 15 77.9062 14.8047 77.9062 14.4141V5.33203C77.9062 4.94141 78.1016 4.74609 78.4922 4.74609H80.0547C80.4453 4.74609 80.6406 4.94141 80.6406 5.33203V8.67188H82.2324C82.3301 7.66927 82.7695 6.73177 83.5508 5.85938C84.3385 4.98698 85.5788 4.55078 87.2715 4.55078C88.9642 4.55078 90.237 5.02279 91.0898 5.9668C91.9492 6.91081 92.3789 8.21289 92.3789 9.87305C92.3789 11.5332 91.9492 12.8353 91.0898 13.7793C90.237 14.7233 88.9642 15.1953 87.2715 15.1953C85.5788 15.1953 84.3353 14.7624 83.541 13.8965C82.7467 13.0306 82.3008 11.9401 82.2031 10.625H80.6406V14.4141C80.6406 14.8047 80.4453 15 80.0547 15H78.4922ZM85.0547 9.87305C85.0547 11.11 85.2435 11.9889 85.6211 12.5098C86.0052 13.0241 86.5553 13.2812 87.2715 13.2812C87.9876 13.2812 88.5345 13.0241 88.9121 12.5098C89.2962 11.9889 89.4883 11.11 89.4883 9.87305C89.4883 8.63607 89.2962 7.76042 88.9121 7.24609C88.5345 6.72526 87.9876 6.46484 87.2715 6.46484C86.5553 6.46484 86.0052 6.72526 85.6211 7.24609C85.2435 7.76042 85.0547 8.63607 85.0547 9.87305Z" fill="black"/>
</g>
</svg>
